<svg xmlns="http://www.w3.org/2000/svg" viewBox="0 0 64 64"><path d="M6.8 64c-1.5-.6-2-1.7-1.9-3.3.2-4.7 2.4-9.2 6-12.3 1-.9 2.1-1.5 3.2-2.3L14 46a12.8 12.8 0 0 1-3.7-6.2.5.5 0 0 0-.5-.3H7.3c-4-.1-7.1-3.4-7.2-7.4V7.4C.1 5.1 1.2 3 3 1.6A9.7 9.7 0 0 1 6.6 0h50.9l.4.1c2.1.4 4 1.7 5 3.6.4.9.8 1.8 1 2.8v26.4l-.1.3c-.5 3.2-3 5.7-6.2 6.1-1.4.1-2.9.2-4.3.1-.4 0-.8.1-1.1.5l-8.4 8.4c-.7.9-1.9 1.2-2.9.8-1-.4-1.5-1.3-1.5-2.6v-7H35c-.5 0-.7.1-.8.6a14 14 0 0 1-2.6 5l-1.1 1.2.1.1.2.1c5.2 2.9 8.5 8.2 8.8 14.1.2 2-.3 2.7-2 3.4H6.8zm3.4-5h24a12.1 12.1 0 0 0-12-9.8c-5.8 0-10.9 4.1-12 9.8zm12-29.5c-4 0-7.3 3.3-7.3 7.3 0 4.1 3.3 7.3 7.3 7.3s7.3-3.3 7.3-7.3c.1-4-3.2-7.3-7.3-7.3zm19.4 4.9c1.4-.1 2.6 1 2.7 2.4v3.9l.6-.5 4.8-4.8c.6-.6 1.4-1 2.2-.9h4.3c1.4.1 2.6-.9 2.7-2.2V7.9c.1-1.4-.9-2.6-2.2-2.8h-.5L7.8 5c-1.4-.2-2.6.9-2.7 2.2v24.5c-.1 1.4 1 2.5 2.3 2.6h2.4c.4 0 .5-.1.6-.5a12.3 12.3 0 0 1 23.9-.1c.1.5.3.6.8.6h3.5l3 .1zm.2-9.7H32c-1.1 0-2.1-.7-2.4-1.8-.3-1 .1-2.2 1-2.7.5-.3 1.1-.4 1.8-.5h19.1c1.3-.1 2.5.9 2.6 2.3.1 1.3-.8 2.6-2.2 2.7H41.8zm-28.9-9.9c-.4 0-.9 0-1.3-.2a2.4 2.4 0 0 1-1.6-2.8c.2-1.2 1.1-2 2.3-2.1h39.2c1.4-.1 2.6.9 2.7 2.2v.2c.1 1.3-.8 2.4-2.1 2.5l-.9.1H35.4l-22.5.1z"></path></svg>