<svg xmlns="http://www.w3.org/2000/svg" viewBox="0 0 64 64"><path d="m1.3 51.2 1-1.3 2-2 11.9 11.8c-1.6 1.7-3.2 3.4-5.6 4-3.4.8-6.9-.5-8.9-3.3a7.9 7.9 0 0 1-.4-9.2zm6.6-6.9 11.8 11.8-1.8 1.8L6.1 46.1l1.8-1.8zm13.3-11.2 9.6 9.6a40.2 40.2 0 0 1-9.4 11.5L9.7 42.5c3.2-3.8 7.1-7 11.5-9.4zm1.5-5.3 2.1-2.1c.5-.4 1.1-.7 1.6-.9a5 5 0 0 1 1.6.9l10 10c.9.8 1 2.2.2 3.2l-.2.2-2.1 2.1c-.8.9-2.2 1-3.1.1l-.1-.1-10-10c-.4-.4-.7-1-.7-1.6 0-.7.3-1.3.7-1.8zm12.1-7.4a9 9 0 0 1 1.7-2.6L50.7 3.6l.1-.1 9.7 9.7-.4.5a1674 1674 0 0 0-13.3 13.4 9.1 9.1 0 0 1-3.7 2.4c-1.9.7-3.7 1.3-4.9 3L31.7 26c1.7-1.5 2.3-3.6 3.1-5.6zM55 .1c1.2-.3 2.5.1 3.4 1.1l4.3 4.3c1.9 1.9 1.8 4.2-.3 5.9l-9.7-9.7C53.2.9 54 .3 55 .1z"></path></svg>