<svg xmlns="http://www.w3.org/2000/svg" viewBox="0 0 64 64"><path d="M.9 60.7a6.4 6.4 0 0 1 1.2-7.9l8.5-8.5.3-.3 9.1 9.1-.2.3-8.6 8.6c-1.2 1.3-3 2-4.7 2a6.4 6.4 0 0 1-5.6-3.3zm12.8-19.5 4.3-4.4c.7-.7 1.8-.6 2.4.1l6.5 6.5c.7.7.8 1.8.1 2.5l-.1.1-4.1 4.1-9.1-8.9zM39 46.5l-6.3-6.3-.2-.2.5-.5 6.3-6.3c2.4-2.3 2.4-6 .2-8.4s-6-2.4-8.4-.2l-.2.2-6 6-.7.8-.5-.5-5.8-5.8a6.6 6.6 0 0 1-.4-9.2l.4-.4A46 46 0 0 1 47.2.3l3.3-.4h4.7l4.2.4c2.3 0 4.3 1.9 4.3 4.2v.1l.4 4.2v4.7l-.4 3.3c-1 8.7-4.5 16.8-10.1 23.5a80.8 80.8 0 0 1-5.7 6 6.2 6.2 0 0 1-8.9.2zM24.9 36.1l.3-.3 8.2-8.3c.5-.6 1.3-.9 2-.8 1.2.2 2 1.3 1.8 2.4-.1.4-.2.8-.5 1.1l-.5.5-7.9 7.9-.4.4-3-2.9z"></path></svg>