<svg xmlns="http://www.w3.org/2000/svg" viewBox="0 0 64 64"><path d="M.7 55.6a6.6 6.6 0 0 1 1.2-7.4l.4-.5 25.5-25.5.4-.4 9.7 9.7-.3.3C29.1 40.5 20.5 49 12 57.5a7 7 0 0 1-4.7 2.2H7a6.9 6.9 0 0 1-6.3-4.1zM52 37l-5.1-5.1c-.5-.4-.8-1.1-.9-1.7 0-1.2-.8-2.2-1.9-2.5a2.6 2.6 0 0 0-3 .8l-.4.4-9.7-9.7 3.1-3.1-.6-.3a9.5 9.5 0 0 0-7.1-2.1c-2.1.2-4.2.7-6.3 1.3-.9.4-2-.1-2.3-1l-.1-.5c0-.5.1-1.1.4-1.5C23 7.2 28.6 4 35.7 4.2c3.8.1 7.4 1.6 10.1 4.3l7.1 7.1c.4.4.6.9.6 1.4 0 1.5 1.3 2.7 2.8 2.8.6 0 1.2.3 1.6.7a267.4 267.4 0 0 1 6 6.4v.9l-1 1.3-7.8 7.8c-.6.9-1.9 1.1-2.8.5L52 37z"></path></svg>